<svg xmlns="http://www.w3.org/2000/svg" xmlns:xlink="http://www.w3.org/1999/xlink" contentStyleType="text/css" data-diagram-type="CLASS" height="1910px" preserveAspectRatio="none" style="width:2871px;height:1910px;background:#FFFFFF;" version="1.1" viewBox="0 0 2871 1910" width="2871px" zoomAndPan="magnify"><defs/><g><!--cluster ratlr--><g class="cluster" data-entity="ratlr" data-source-line="1" data-uid="ent0003" id="cluster_ratlr"><path d="M8.5,6.0137 L36.7344,6.0137 A3.75,3.75 0 0 1 39.2344,8.5137 L46.2344,30.6348 L2861.5,30.6348 A2.5,2.5 0 0 1 2864,33.1348 L2864,1900.5137 A2.5,2.5 0 0 1 2861.5,1903.0137 L8.5,1903.0137 A2.5,2.5 0 0 1 6,1900.5137 L6,8.5137 A2.5,2.5 0 0 1 8.5,6.0137" fill="none" style="stroke:#000000;stroke-width:1.5;"/><line style="stroke:#000000;stroke-width:1.5;" x1="6" x2="46.2344" y1="30.6348" y2="30.6348"/><text fill="#000000" font-family="sans-serif" font-size="14" font-weight="bold" lengthAdjust="spacing" textLength="27.2344" x="10" y="23.1211">ratlr</text></g><!--cluster promptoptimizer--><g class="cluster" data-entity="promptoptimizer" data-source-line="1" data-uid="ent0004" id="cluster_promptoptimizer"><path d="M1182.5,51.0137 L1293.9414,51.0137 A3.75,3.75 0 0 1 1296.4414,53.5137 L1303.4414,75.6348 L2663.5,75.6348 A2.5,2.5 0 0 1 2666,78.1348 L2666,1274.5137 A2.5,2.5 0 0 1 2663.5,1277.0137 L1182.5,1277.0137 A2.5,2.5 0 0 1 1180,1274.5137 L1180,53.5137 A2.5,2.5 0 0 1 1182.5,51.0137" fill="none" style="stroke:#000000;stroke-width:1.5;"/><line style="stroke:#000000;stroke-width:1.5;" x1="1180" x2="1303.4414" y1="75.6348" y2="75.6348"/><text fill="#000000" font-family="sans-serif" font-size="14" font-weight="bold" lengthAdjust="spacing" textLength="110.4414" x="1184" y="68.1211">promptoptimizer</text></g><!--cluster metric--><g class="cluster" data-entity="scorer" data-source-line="80" data-uid="ent0016" id="cluster_scorer"><path d="M32.5,1347.5137 L76.3066,1347.5137 A3.75,3.75 0 0 1 78.8066,1350.0137 L85.8066,1372.1348 L1121.5,1372.1348 A2.5,2.5 0 0 1 1124,1374.6348 L1124,1712.5137 A2.5,2.5 0 0 1 1121.5,1715.0137 L32.5,1715.0137 A2.5,2.5 0 0 1 30,1712.5137 L30,1350.0137 A2.5,2.5 0 0 1 32.5,1347.5137" fill="none" style="stroke:#000000;stroke-width:1.5;"/><line style="stroke:#000000;stroke-width:1.5;" x1="30" x2="85.8066" y1="1372.1348" y2="1372.1348"/><text fill="#000000" font-family="sans-serif" font-size="14" font-weight="bold" lengthAdjust="spacing" textLength="42.8066" x="34" y="1364.6211">scorer</text></g><!--cluster evaluator--><g class="cluster" data-entity="evaluator" data-source-line="101" data-uid="ent0022" id="cluster_evaluator"><path d="M1150.5,1301.0137 L1213.748,1301.0137 A3.75,3.75 0 0 1 1216.248,1303.5137 L1223.248,1325.6348 L2837.5,1325.6348 A2.5,2.5 0 0 1 2840,1328.1348 L2840,1876.5137 A2.5,2.5 0 0 1 2837.5,1879.0137 L1150.5,1879.0137 A2.5,2.5 0 0 1 1148,1876.5137 L1148,1303.5137 A2.5,2.5 0 0 1 1150.5,1301.0137" fill="none" style="stroke:#000000;stroke-width:1.5;"/><line style="stroke:#000000;stroke-width:1.5;" x1="1148" x2="1223.248" y1="1325.6348" y2="1325.6348"/><text fill="#000000" font-family="sans-serif" font-size="14" font-weight="bold" lengthAdjust="spacing" textLength="62.248" x="1152" y="1318.1211">evaluator</text></g><!--cluster elementstore--><g class="cluster" data-entity="elementstore" data-source-line="141" data-uid="ent0032" id="cluster_elementstore"><path d="M173.5,144.0137 L261.6445,144.0137 A3.75,3.75 0 0 1 264.1445,146.5137 L271.1445,168.6348 L1082.5,168.6348 A2.5,2.5 0 0 1 1085,171.1348 L1085,741.5137 A2.5,2.5 0 0 1 1082.5,744.0137 L173.5,744.0137 A2.5,2.5 0 0 1 171,741.5137 L171,146.5137 A2.5,2.5 0 0 1 173.5,144.0137" fill="none" style="stroke:#000000;stroke-width:1.5;"/><line style="stroke:#000000;stroke-width:1.5;" x1="171" x2="271.1445" y1="168.6348" y2="168.6348"/><text fill="#000000" font-family="sans-serif" font-size="14" font-weight="bold" lengthAdjust="spacing" textLength="87.1445" x="175" y="161.1211">elementstore</text></g><!--class SimpleOptimizer--><g class="entity" data-entity="SimpleOptimizer" data-source-line="1" data-uid="ent0002" id="entity_SimpleOptimizer"><rect fill="#F1F1F1" height="122.4844" rx="2.5" ry="2.5" style="stroke:#181818;stroke-width:0.5;" width="396.3096" x="1196" y="596.5137"/><ellipse cx="1338.5601" cy="612.5137" fill="#ADD1B2" rx="11" ry="11" style="stroke:#181818;stroke-width:1;"/><path d="M1341.3257,608.3887 Q1341.4819,608.1699 1341.6694,608.0605 Q1341.8569,607.9512 1342.0757,607.9512 Q1342.4507,607.9512 1342.6851,608.2168 Q1342.9194,608.4668 1342.9194,609.0762 L1342.9194,610.5293 Q1342.9194,611.1387 1342.6851,611.4043 Q1342.4507,611.6699 1342.0757,611.6699 Q1341.7319,611.6699 1341.5288,611.4668 Q1341.3257,611.2793 1341.2163,610.7637 Q1341.1694,610.4043 1340.9819,610.2168 Q1340.6538,609.8418 1340.0444,609.623 Q1339.4351,609.4043 1338.8101,609.4043 Q1338.0444,609.4043 1337.4038,609.7324 Q1336.7788,610.0605 1336.2788,610.8105 Q1335.7944,611.5605 1335.7944,612.5918 L1335.7944,613.6855 Q1335.7944,614.9199 1336.6851,615.748 Q1337.5757,616.5605 1339.1694,616.5605 Q1340.1069,616.5605 1340.7632,616.3105 Q1341.1538,616.1543 1341.5757,615.7168 Q1341.8413,615.4512 1341.9819,615.373 Q1342.1382,615.2949 1342.3413,615.2949 Q1342.6694,615.2949 1342.9194,615.5605 Q1343.1851,615.8105 1343.1851,616.1543 Q1343.1851,616.498 1342.8413,616.9043 Q1342.3413,617.4824 1341.5444,617.8105 Q1340.4663,618.2637 1339.1694,618.2637 Q1337.6538,618.2637 1336.4507,617.6387 Q1335.4663,617.1387 1334.7788,616.0762 Q1334.0913,614.998 1334.0913,613.7168 L1334.0913,612.5605 Q1334.0913,611.2324 1334.7007,610.0918 Q1335.3257,608.9355 1336.4194,608.3262 Q1337.5132,607.7012 1338.7476,607.7012 Q1339.4819,607.7012 1340.1226,607.873 Q1340.7788,608.0293 1341.3257,608.3887 Z " fill="#000000"/><text fill="#000000" font-family="sans-serif" font-size="14" lengthAdjust="spacing" textLength="102.6895" x="1359.0601" y="618.3105">SimpleOptimizer</text><line style="stroke:#181818;stroke-width:0.5;" x1="1197" x2="1591.3096" y1="628.5137" y2="628.5137"/><ellipse cx="1207" cy="643.3242" fill="none" rx="3" ry="3" style="stroke:#038048;stroke-width:1;"/><text fill="#000000" font-family="sans-serif" font-size="14" lengthAdjust="spacing" text-decoration="underline" textLength="293.2754" x="1216" y="647.6211">String DEFAULT_OPTIMIZATION_TEMPLATE</text><ellipse cx="1207" cy="661.9453" fill="none" rx="3" ry="3" style="stroke:#038048;stroke-width:1;"/><text fill="#000000" font-family="sans-serif" font-size="14" lengthAdjust="spacing" text-decoration="underline" textLength="210.8408" x="1216" y="666.2422">String ORIGINAL_PROMPT_KEY</text><line style="stroke:#181818;stroke-width:0.5;" x1="1197" x2="1591.3096" y1="673.7559" y2="673.7559"/><ellipse cx="1207" cy="688.5664" fill="#84BE84" rx="3" ry="3" style="stroke:#038048;stroke-width:1;"/><text fill="#000000" font-family="sans-serif" font-size="14" lengthAdjust="spacing" textLength="360.2676" x="1216" y="692.8633">String optimize(SourceElementStore,TargetElementStore)</text><polygon fill="#FFFF44" points="1207,702.1875,1211,706.1875,1207,710.1875,1203,706.1875" style="stroke:#B38D22;stroke-width:1;"/><text fill="#000000" font-family="sans-serif" font-size="14" lengthAdjust="spacing" textLength="370.3096" x="1216" y="711.4844">AbstractPromptOptimizer copyOf(AbstractPromptOptimizer)</text></g><!--class AutomaticPromptOptimizer--><g class="entity" data-entity="AutomaticPromptOptimizer" data-source-line="9" data-uid="ent0005" id="entity_AutomaticPromptOptimizer"><rect fill="#F1F1F1" height="141.1055" rx="2.5" ry="2.5" style="stroke:#181818;stroke-width:0.5;" width="396.3096" x="1725" y="1120.0137"/><ellipse cx="1835.2705" cy="1136.0137" fill="#ADD1B2" rx="11" ry="11" style="stroke:#181818;stroke-width:1;"/><path d="M1838.0361,1131.8887 Q1838.1924,1131.6699 1838.3799,1131.5605 Q1838.5674,1131.4512 1838.7861,1131.4512 Q1839.1611,1131.4512 1839.3955,1131.7168 Q1839.6299,1131.9668 1839.6299,1132.5762 L1839.6299,1134.0293 Q1839.6299,1134.6387 1839.3955,1134.9043 Q1839.1611,1135.1699 1838.7861,1135.1699 Q1838.4424,1135.1699 1838.2393,1134.9668 Q1838.0361,1134.7793 1837.9268,1134.2637 Q1837.8799,1133.9043 1837.6924,1133.7168 Q1837.3643,1133.3418 1836.7549,1133.123 Q1836.1455,1132.9043 1835.5205,1132.9043 Q1834.7549,1132.9043 1834.1143,1133.2324 Q1833.4893,1133.5605 1832.9893,1134.3105 Q1832.5049,1135.0605 1832.5049,1136.0918 L1832.5049,1137.1855 Q1832.5049,1138.4199 1833.3955,1139.248 Q1834.2861,1140.0605 1835.8799,1140.0605 Q1836.8174,1140.0605 1837.4736,1139.8105 Q1837.8643,1139.6543 1838.2861,1139.2168 Q1838.5518,1138.9512 1838.6924,1138.873 Q1838.8486,1138.7949 1839.0518,1138.7949 Q1839.3799,1138.7949 1839.6299,1139.0605 Q1839.8955,1139.3105 1839.8955,1139.6543 Q1839.8955,1139.998 1839.5518,1140.4043 Q1839.0518,1140.9824 1838.2549,1141.3105 Q1837.1768,1141.7637 1835.8799,1141.7637 Q1834.3643,1141.7637 1833.1611,1141.1387 Q1832.1768,1140.6387 1831.4893,1139.5762 Q1830.8018,1138.498 1830.8018,1137.2168 L1830.8018,1136.0605 Q1830.8018,1134.7324 1831.4111,1133.5918 Q1832.0361,1132.4355 1833.1299,1131.8262 Q1834.2236,1131.2012 1835.458,1131.2012 Q1836.1924,1131.2012 1836.833,1131.373 Q1837.4893,1131.5293 1838.0361,1131.8887 Z " fill="#000000"/><text fill="#000000" font-family="sans-serif" font-size="14" lengthAdjust="spacing" textLength="167.2686" x="1855.7705" y="1141.8105">AutomaticPromptOptimizer</text><line style="stroke:#181818;stroke-width:0.5;" x1="1726" x2="2120.3096" y1="1152.0137" y2="1152.0137"/><ellipse cx="1736" cy="1166.8242" fill="none" rx="3" ry="3" style="stroke:#038048;stroke-width:1;"/><text fill="#000000" font-family="sans-serif" font-size="14" lengthAdjust="spacing" text-decoration="underline" textLength="122.917" x="1745" y="1171.1211">String START_TAG</text><ellipse cx="1736" cy="1185.4453" fill="none" rx="3" ry="3" style="stroke:#038048;stroke-width:1;"/><text fill="#000000" font-family="sans-serif" font-size="14" lengthAdjust="spacing" text-decoration="underline" textLength="106.5859" x="1745" y="1189.7422">String END_TAG</text><ellipse cx="1736" cy="1204.0664" fill="none" rx="3" ry="3" style="stroke:#038048;stroke-width:1;"/><text fill="#000000" font-family="sans-serif" font-size="14" lengthAdjust="spacing" text-decoration="underline" textLength="227.1719" x="1745" y="1208.3633">String SECTION_HEADER_PREFIX</text><line style="stroke:#181818;stroke-width:0.5;" x1="1726" x2="2120.3096" y1="1215.877" y2="1215.877"/><ellipse cx="1736" cy="1230.6875" fill="#84BE84" rx="3" ry="3" style="stroke:#038048;stroke-width:1;"/><text fill="#000000" font-family="sans-serif" font-size="14" lengthAdjust="spacing" textLength="360.2676" x="1745" y="1234.9844">String optimize(SourceElementStore,TargetElementStore)</text><polygon fill="#FFFF44" points="1736,1244.3086,1740,1248.3086,1736,1252.3086,1732,1248.3086" style="stroke:#B38D22;stroke-width:1;"/><text fill="#000000" font-family="sans-serif" font-size="14" lengthAdjust="spacing" textLength="370.3096" x="1745" y="1253.6055">AbstractPromptOptimizer copyOf(AbstractPromptOptimizer)</text></g><!--class PromptOptimizer--><g class="entity" data-entity="AbstractPromptOptimizer" data-source-line="18" data-uid="ent0006" id="entity_AbstractPromptOptimizer"><rect fill="#F1F1F1" height="327.3164" rx="2.5" ry="2.5" style="stroke:#181818;stroke-width:0.5;" width="1077.9824" x="1384" y="88.0137"/><ellipse cx="1840.5552" cy="104.0137" fill="#A9DCDF" rx="11" ry="11" style="stroke:#181818;stroke-width:1;"/><path d="M1842.7427,105.7793 L1838.6021,105.7793 L1838.1802,106.8105 L1838.6021,106.8105 Q1839.2114,106.8105 1839.4771,107.0449 Q1839.7427,107.2793 1839.7427,107.6699 Q1839.7427,108.0449 1839.4771,108.2793 Q1839.2114,108.5137 1838.6021,108.5137 L1836.3052,108.5137 Q1835.6958,108.5137 1835.4458,108.2793 Q1835.1802,108.0449 1835.1802,107.6543 Q1835.1802,107.2793 1835.4614,107.0449 Q1835.7271,106.7949 1836.3521,106.8105 L1839.0239,100.1543 L1837.9146,100.1543 Q1837.3052,100.1543 1837.0396,99.9199 Q1836.7739,99.6855 1836.7739,99.2949 Q1836.7739,98.9199 1837.0396,98.6855 Q1837.3052,98.4512 1837.9146,98.4512 L1841.5864,98.4512 L1844.9771,106.8105 Q1845.5708,106.8105 1845.7583,106.9512 Q1846.1489,107.2168 1846.1489,107.6699 Q1846.1489,108.0449 1845.8833,108.2793 Q1845.6333,108.5137 1845.0239,108.5137 L1842.7271,108.5137 Q1842.1177,108.5137 1841.8521,108.2793 Q1841.5864,108.0449 1841.5864,107.6543 Q1841.5864,107.2793 1841.8521,107.0449 Q1842.1177,106.8105 1842.7271,106.8105 L1843.1489,106.8105 L1842.7427,105.7793 Z M1842.0239,104.0762 L1840.6646,100.7012 L1839.2896,104.0762 L1842.0239,104.0762 Z " fill="#000000"/><text fill="#000000" font-family="sans-serif" font-size="14" font-style="italic" lengthAdjust="spacing" textLength="156.3721" x="1861.0552" y="109.8105">AbstractPromptOptimizer</text><line style="stroke:#181818;stroke-width:0.5;" x1="1385" x2="2460.9824" y1="120.0137" y2="120.0137"/><ellipse cx="1395" cy="134.8242" fill="none" rx="3" ry="3" style="stroke:#038048;stroke-width:1;"/><text fill="#000000" font-family="sans-serif" font-size="14" lengthAdjust="spacing" text-decoration="underline" textLength="237.2754" x="1404" y="139.1211">String CONFIG_NAME_SEPARATOR</text><ellipse cx="1395" cy="153.4453" fill="none" rx="3" ry="3" style="stroke:#038048;stroke-width:1;"/><text fill="#000000" font-family="sans-serif" font-size="14" lengthAdjust="spacing" text-decoration="underline" textLength="154.0273" x="1404" y="157.7422">String PROMPT_START</text><ellipse cx="1395" cy="172.0664" fill="none" rx="3" ry="3" style="stroke:#038048;stroke-width:1;"/><text fill="#000000" font-family="sans-serif" font-size="14" lengthAdjust="spacing" text-decoration="underline" textLength="137.6963" x="1404" y="176.3633">String PROMPT_END</text><polygon fill="none" points="1395,185.6875,1399,189.6875,1395,193.6875,1391,189.6875" style="stroke:#B38D22;stroke-width:1;"/><text fill="#000000" font-family="sans-serif" font-size="14" lengthAdjust="spacing" text-decoration="underline" textLength="325.1787" x="1404" y="194.9844">String PROMPT_OPTIMIZATION_TEMPLATE_KEY</text><polygon fill="none" points="1395,204.3086,1399,208.3086,1395,212.3086,1391,208.3086" style="stroke:#B38D22;stroke-width:1;"/><text fill="#000000" font-family="sans-serif" font-size="14" lengthAdjust="spacing" text-decoration="underline" textLength="136.1514" x="1404" y="213.6055">String PROMPT_KEY</text><polygon fill="none" points="1395,222.9297,1399,226.9297,1395,230.9297,1391,226.9297" style="stroke:#B38D22;stroke-width:1;"/><text fill="#000000" font-family="sans-serif" font-size="14" lengthAdjust="spacing" text-decoration="underline" textLength="123.751" x="1404" y="232.2266">Logger staticLogger</text><polygon fill="none" points="1395,241.5508,1399,245.5508,1395,249.5508,1391,245.5508" style="stroke:#B38D22;stroke-width:1;"/><text fill="#000000" font-family="sans-serif" font-size="14" lengthAdjust="spacing" textLength="86.3994" x="1404" y="250.8477">Logger logger</text><polygon fill="none" points="1395,260.1719,1399,264.1719,1395,268.1719,1391,264.1719" style="stroke:#B38D22;stroke-width:1;"/><text fill="#000000" font-family="sans-serif" font-size="14" lengthAdjust="spacing" textLength="65.3721" x="1404" y="269.4688">int threads</text><line style="stroke:#181818;stroke-width:0.5;" x1="1385" x2="2460.9824" y1="276.9824" y2="276.9824"/><ellipse cx="1395" cy="291.793" fill="#84BE84" rx="3" ry="3" style="stroke:#038048;stroke-width:1;"/><text fill="#000000" font-family="sans-serif" font-size="14" lengthAdjust="spacing" text-decoration="underline" textLength="1051.9824" x="1404" y="296.0898">AbstractPromptOptimizer createOptimizer(ModuleConfiguration,Set&lt;TraceLink&gt;,ResultAggregator,TraceLinkIdPostprocessor,Classifier,AbstractScorer,AbstractEvaluator)</text><ellipse cx="1395" cy="310.4141" fill="#84BE84" rx="3" ry="3" style="stroke:#038048;stroke-width:1;"/><text fill="#000000" font-family="sans-serif" font-size="14" font-style="italic" lengthAdjust="spacing" textLength="360.2676" x="1404" y="314.7109">String optimize(SourceElementStore,TargetElementStore)</text><polygon fill="#FFFF44" points="1395,324.0352,1399,328.0352,1395,332.0352,1391,328.0352" style="stroke:#B38D22;stroke-width:1;"/><text fill="#000000" font-family="sans-serif" font-size="14" font-style="italic" lengthAdjust="spacing" textLength="370.3096" x="1404" y="333.332">AbstractPromptOptimizer copyOf(AbstractPromptOptimizer)</text><polygon fill="#FFFF44" points="1395,342.6563,1399,346.6563,1395,350.6563,1391,346.6563" style="stroke:#B38D22;stroke-width:1;"/><text fill="#000000" font-family="sans-serif" font-size="14" lengthAdjust="spacing" text-decoration="underline" textLength="269.1992" x="1404" y="351.9531">String extractPromptFromResponse(String)</text><polygon fill="#FFFF44" points="1395,361.2773,1399,365.2773,1395,369.2773,1391,365.2773" style="stroke:#B38D22;stroke-width:1;"/><text fill="#000000" font-family="sans-serif" font-size="14" lengthAdjust="spacing" text-decoration="underline" textLength="304.2266" x="1404" y="370.5742">String parseTaggedTextFirst(String,String,String)</text><polygon fill="#FFFF44" points="1395,379.8984,1399,383.8984,1395,387.8984,1391,383.8984" style="stroke:#B38D22;stroke-width:1;"/><text fill="#000000" font-family="sans-serif" font-size="14" lengthAdjust="spacing" text-decoration="underline" textLength="315.1504" x="1404" y="389.1953">List&lt;String&gt; parseTaggedText(String,String,String)</text><polygon fill="#FFFF44" points="1395,398.5195,1399,402.5195,1395,406.5195,1391,402.5195" style="stroke:#B38D22;stroke-width:1;"/><text fill="#000000" font-family="sans-serif" font-size="14" lengthAdjust="spacing" text-decoration="underline" textLength="178.9512" x="1404" y="407.8164">String sanitizePrompt(String)</text></g><!--class IterativeOptimizer--><g class="entity" data-entity="IterativeOptimizer" data-source-line="37" data-uid="ent0007" id="entity_IterativeOptimizer"><rect fill="#F1F1F1" height="364.5586" rx="2.5" ry="2.5" style="stroke:#181818;stroke-width:0.5;" width="590.9766" x="1627.5" y="475.0137"/><ellipse cx="1863.8901" cy="491.0137" fill="#ADD1B2" rx="11" ry="11" style="stroke:#181818;stroke-width:1;"/><path d="M1866.6558,486.8887 Q1866.812,486.6699 1866.9995,486.5605 Q1867.187,486.4512 1867.4058,486.4512 Q1867.7808,486.4512 1868.0151,486.7168 Q1868.2495,486.9668 1868.2495,487.5762 L1868.2495,489.0293 Q1868.2495,489.6387 1868.0151,489.9043 Q1867.7808,490.1699 1867.4058,490.1699 Q1867.062,490.1699 1866.8589,489.9668 Q1866.6558,489.7793 1866.5464,489.2637 Q1866.4995,488.9043 1866.312,488.7168 Q1865.9839,488.3418 1865.3745,488.123 Q1864.7651,487.9043 1864.1401,487.9043 Q1863.3745,487.9043 1862.7339,488.2324 Q1862.1089,488.5605 1861.6089,489.3105 Q1861.1245,490.0605 1861.1245,491.0918 L1861.1245,492.1855 Q1861.1245,493.4199 1862.0151,494.248 Q1862.9058,495.0605 1864.4995,495.0605 Q1865.437,495.0605 1866.0933,494.8105 Q1866.4839,494.6543 1866.9058,494.2168 Q1867.1714,493.9512 1867.312,493.873 Q1867.4683,493.7949 1867.6714,493.7949 Q1867.9995,493.7949 1868.2495,494.0605 Q1868.5151,494.3105 1868.5151,494.6543 Q1868.5151,494.998 1868.1714,495.4043 Q1867.6714,495.9824 1866.8745,496.3105 Q1865.7964,496.7637 1864.4995,496.7637 Q1862.9839,496.7637 1861.7808,496.1387 Q1860.7964,495.6387 1860.1089,494.5762 Q1859.4214,493.498 1859.4214,492.2168 L1859.4214,491.0605 Q1859.4214,489.7324 1860.0308,488.5918 Q1860.6558,487.4355 1861.7495,486.8262 Q1862.8433,486.2012 1864.0776,486.2012 Q1864.812,486.2012 1865.4526,486.373 Q1866.1089,486.5293 1866.6558,486.8887 Z " fill="#000000"/><text fill="#000000" font-family="sans-serif" font-size="14" lengthAdjust="spacing" textLength="109.6963" x="1884.3901" y="496.8105">IterativeOptimizer</text><line style="stroke:#181818;stroke-width:0.5;" x1="1628.5" x2="2217.4766" y1="507.0137" y2="507.0137"/><polygon fill="none" points="1638.5,516.8242,1642.5,520.8242,1638.5,524.8242,1634.5,520.8242" style="stroke:#B38D22;stroke-width:1;"/><text fill="#000000" font-family="sans-serif" font-size="14" lengthAdjust="spacing" text-decoration="underline" textLength="213.9717" x="1647.5" y="526.1211">double THRESHOLD_F1_SCORE</text><polygon fill="none" points="1638.5,535.4453,1642.5,539.4453,1638.5,543.4453,1634.5,539.4453" style="stroke:#B38D22;stroke-width:1;"/><text fill="#000000" font-family="sans-serif" font-size="14" lengthAdjust="spacing" text-decoration="underline" textLength="169.5928" x="1647.5" y="544.7422">int TRAINING_DATA_SIZE</text><polygon fill="none" points="1638.5,554.0664,1642.5,558.0664,1638.5,562.0664,1634.5,558.0664" style="stroke:#B38D22;stroke-width:1;"/><text fill="#000000" font-family="sans-serif" font-size="14" lengthAdjust="spacing" textLength="81.7168" x="1647.5" y="563.3633">Cache cache</text><polygon fill="none" points="1638.5,572.6875,1642.5,576.6875,1638.5,580.6875,1634.5,576.6875" style="stroke:#B38D22;stroke-width:1;"/><text fill="#000000" font-family="sans-serif" font-size="14" lengthAdjust="spacing" textLength="236.5918" x="1647.5" y="581.9844">ChatLanguageModelProvider provider</text><polygon fill="none" points="1638.5,591.3086,1642.5,595.3086,1638.5,599.3086,1634.5,595.3086" style="stroke:#B38D22;stroke-width:1;"/><text fill="#000000" font-family="sans-serif" font-size="14" lengthAdjust="spacing" textLength="89.4756" x="1647.5" y="600.6055">ChatModel llm</text><polygon fill="none" points="1638.5,609.9297,1642.5,613.9297,1638.5,617.9297,1634.5,613.9297" style="stroke:#B38D22;stroke-width:1;"/><text fill="#000000" font-family="sans-serif" font-size="14" lengthAdjust="spacing" textLength="94.1582" x="1647.5" y="619.2266">String template</text><polygon fill="none" points="1638.5,628.5508,1642.5,632.5508,1638.5,636.5508,1634.5,632.5508" style="stroke:#B38D22;stroke-width:1;"/><text fill="#000000" font-family="sans-serif" font-size="14" lengthAdjust="spacing" textLength="160.2891" x="1647.5" y="637.8477">String optimizationPrompt</text><polygon fill="none" points="1638.5,647.1719,1642.5,651.1719,1638.5,655.1719,1634.5,651.1719" style="stroke:#B38D22;stroke-width:1;"/><text fill="#000000" font-family="sans-serif" font-size="14" lengthAdjust="spacing" textLength="136.9307" x="1647.5" y="656.4688">int maximumIterations</text><polygon fill="none" points="1638.5,665.793,1642.5,669.793,1638.5,673.793,1634.5,669.793" style="stroke:#B38D22;stroke-width:1;"/><text fill="#000000" font-family="sans-serif" font-size="14" lengthAdjust="spacing" textLength="115.9102" x="1647.5" y="675.0898">Classifier classifier</text><polygon fill="none" points="1638.5,684.4141,1642.5,688.4141,1638.5,692.4141,1634.5,688.4141" style="stroke:#B38D22;stroke-width:1;"/><text fill="#000000" font-family="sans-serif" font-size="14" lengthAdjust="spacing" textLength="199.9854" x="1647.5" y="693.7109">Set&lt;TraceLink&gt; validTraceLinks</text><line style="stroke:#181818;stroke-width:0.5;" x1="1628.5" x2="2217.4766" y1="701.2246" y2="701.2246"/><ellipse cx="1638.5" cy="716.0352" fill="#84BE84" rx="3" ry="3" style="stroke:#038048;stroke-width:1;"/><text fill="#000000" font-family="sans-serif" font-size="14" lengthAdjust="spacing" textLength="360.2676" x="1647.5" y="720.332">String optimize(SourceElementStore,TargetElementStore)</text><polygon fill="#FFFF44" points="1638.5,729.6563,1642.5,733.6563,1638.5,737.6563,1634.5,733.6563" style="stroke:#B38D22;stroke-width:1;"/><text fill="#000000" font-family="sans-serif" font-size="14" lengthAdjust="spacing" textLength="396.0674" x="1647.5" y="738.9531">String optimizeIntern(SourceElementStore,TargetElementStore)</text><polygon fill="#FFFF44" points="1638.5,748.2773,1642.5,752.2773,1638.5,756.2773,1634.5,752.2773" style="stroke:#B38D22;stroke-width:1;"/><text fill="#000000" font-family="sans-serif" font-size="14" lengthAdjust="spacing" textLength="241.2402" x="1647.5" y="757.5742">String cachedSanitizedRequest(String)</text><polygon fill="#FFFF44" points="1638.5,766.8984,1642.5,770.8984,1638.5,774.8984,1634.5,770.8984" style="stroke:#B38D22;stroke-width:1;"/><text fill="#000000" font-family="sans-serif" font-size="14" lengthAdjust="spacing" textLength="423.3359" x="1647.5" y="776.1953">double evaluateF1(SourceElementStore,TargetElementStore,String)</text><polygon fill="#FFFF44" points="1638.5,785.5195,1642.5,789.5195,1638.5,793.5195,1634.5,789.5195" style="stroke:#B38D22;stroke-width:1;"/><text fill="#000000" font-family="sans-serif" font-size="14" lengthAdjust="spacing" textLength="498.791" x="1647.5" y="794.8164">Set&lt;TraceLink&gt; getTraceLinks(SourceElementStore,TargetElementStore,String)</text><polygon fill="#FFFF44" points="1638.5,804.1406,1642.5,808.1406,1638.5,812.1406,1634.5,808.1406" style="stroke:#B38D22;stroke-width:1;"/><text fill="#000000" font-family="sans-serif" font-size="14" lengthAdjust="spacing" textLength="564.9766" x="1647.5" y="813.4375">Set&lt;TraceLink&gt; getReducedGoldStandardLinks(SourceElementStore,TargetElementStore)</text><polygon fill="#FFFF44" points="1638.5,822.7617,1642.5,826.7617,1638.5,830.7617,1634.5,826.7617" style="stroke:#B38D22;stroke-width:1;"/><text fill="#000000" font-family="sans-serif" font-size="14" lengthAdjust="spacing" textLength="370.3096" x="1647.5" y="832.0586">AbstractPromptOptimizer copyOf(AbstractPromptOptimizer)</text></g><!--class IterativeFeedbackOptimizer--><g class="entity" data-entity="IterativeFeedbackOptimizer" data-source-line="57" data-uid="ent0008" id="entity_IterativeFeedbackOptimizer"><rect fill="#F1F1F1" height="159.7266" rx="2.5" ry="2.5" style="stroke:#181818;stroke-width:0.5;" width="422.0674" x="1712" y="900.0137"/><ellipse cx="1833.1943" cy="916.0137" fill="#ADD1B2" rx="11" ry="11" style="stroke:#181818;stroke-width:1;"/><path d="M1835.96,911.8887 Q1836.1162,911.6699 1836.3037,911.5605 Q1836.4912,911.4512 1836.71,911.4512 Q1837.085,911.4512 1837.3193,911.7168 Q1837.5537,911.9668 1837.5537,912.5762 L1837.5537,914.0293 Q1837.5537,914.6387 1837.3193,914.9043 Q1837.085,915.1699 1836.71,915.1699 Q1836.3662,915.1699 1836.1631,914.9668 Q1835.96,914.7793 1835.8506,914.2637 Q1835.8037,913.9043 1835.6162,913.7168 Q1835.2881,913.3418 1834.6787,913.123 Q1834.0693,912.9043 1833.4443,912.9043 Q1832.6787,912.9043 1832.0381,913.2324 Q1831.4131,913.5605 1830.9131,914.3105 Q1830.4287,915.0605 1830.4287,916.0918 L1830.4287,917.1855 Q1830.4287,918.4199 1831.3193,919.248 Q1832.21,920.0605 1833.8037,920.0605 Q1834.7412,920.0605 1835.3975,919.8105 Q1835.7881,919.6543 1836.21,919.2168 Q1836.4756,918.9512 1836.6162,918.873 Q1836.7725,918.7949 1836.9756,918.7949 Q1837.3037,918.7949 1837.5537,919.0605 Q1837.8193,919.3105 1837.8193,919.6543 Q1837.8193,919.998 1837.4756,920.4043 Q1836.9756,920.9824 1836.1787,921.3105 Q1835.1006,921.7637 1833.8037,921.7637 Q1832.2881,921.7637 1831.085,921.1387 Q1830.1006,920.6387 1829.4131,919.5762 Q1828.7256,918.498 1828.7256,917.2168 L1828.7256,916.0605 Q1828.7256,914.7324 1829.335,913.5918 Q1829.96,912.4355 1831.0537,911.8262 Q1832.1475,911.2012 1833.3818,911.2012 Q1834.1162,911.2012 1834.7568,911.373 Q1835.4131,911.5293 1835.96,911.8887 Z " fill="#000000"/><text fill="#000000" font-family="sans-serif" font-size="14" lengthAdjust="spacing" textLength="171.1787" x="1853.6943" y="921.8105">IterativeFeedbackOptimizer</text><line style="stroke:#181818;stroke-width:0.5;" x1="1713" x2="2133.0674" y1="932.0137" y2="932.0137"/><ellipse cx="1723" cy="946.8242" fill="none" rx="3" ry="3" style="stroke:#038048;stroke-width:1;"/><text fill="#000000" font-family="sans-serif" font-size="14" lengthAdjust="spacing" text-decoration="underline" textLength="265.2891" x="1732" y="951.1211">String FEEDBACK_PROMPT_TEMPLATE</text><ellipse cx="1723" cy="965.4453" fill="none" rx="3" ry="3" style="stroke:#038048;stroke-width:1;"/><text fill="#000000" font-family="sans-serif" font-size="14" lengthAdjust="spacing" text-decoration="underline" textLength="219.3994" x="1732" y="969.7422">String FEEDBACK_PROMPT_KEY</text><ellipse cx="1723" cy="984.0664" fill="none" rx="3" ry="3" style="stroke:#038048;stroke-width:1;"/><text fill="#000000" font-family="sans-serif" font-size="14" lengthAdjust="spacing" text-decoration="underline" textLength="133.041" x="1732" y="988.3633">int FEEDBACK_SIZE</text><ellipse cx="1723" cy="1002.6875" fill="none" rx="3" ry="3" style="stroke:#038048;stroke-width:1;"/><text fill="#000000" font-family="sans-serif" font-size="14" lengthAdjust="spacing" text-decoration="underline" textLength="190.627" x="1732" y="1006.9844">String FEEDBACK_SIZE_KEY</text><line style="stroke:#181818;stroke-width:0.5;" x1="1713" x2="2133.0674" y1="1014.498" y2="1014.498"/><polygon fill="#FFFF44" points="1723,1024.3086,1727,1028.3086,1723,1032.3086,1719,1028.3086" style="stroke:#B38D22;stroke-width:1;"/><text fill="#000000" font-family="sans-serif" font-size="14" lengthAdjust="spacing" textLength="370.3096" x="1732" y="1033.6055">AbstractPromptOptimizer copyOf(AbstractPromptOptimizer)</text><polygon fill="#FFFF44" points="1723,1042.9297,1727,1046.9297,1723,1050.9297,1719,1046.9297" style="stroke:#B38D22;stroke-width:1;"/><text fill="#000000" font-family="sans-serif" font-size="14" lengthAdjust="spacing" textLength="396.0674" x="1732" y="1052.2266">String optimizeIntern(SourceElementStore,TargetElementStore)</text></g><!--class MockOptimizer--><g class="entity" data-entity="MockOptimizer" data-source-line="67" data-uid="ent0009" id="entity_MockOptimizer"><rect fill="#F1F1F1" height="85.2422" rx="2.5" ry="2.5" style="stroke:#181818;stroke-width:0.5;" width="396.3096" x="2254" y="615.0137"/><ellipse cx="2401.2324" cy="631.0137" fill="#ADD1B2" rx="11" ry="11" style="stroke:#181818;stroke-width:1;"/><path d="M2403.998,626.8887 Q2404.1543,626.6699 2404.3418,626.5605 Q2404.5293,626.4512 2404.748,626.4512 Q2405.123,626.4512 2405.3574,626.7168 Q2405.5918,626.9668 2405.5918,627.5762 L2405.5918,629.0293 Q2405.5918,629.6387 2405.3574,629.9043 Q2405.123,630.1699 2404.748,630.1699 Q2404.4043,630.1699 2404.2012,629.9668 Q2403.998,629.7793 2403.8887,629.2637 Q2403.8418,628.9043 2403.6543,628.7168 Q2403.3262,628.3418 2402.7168,628.123 Q2402.1074,627.9043 2401.4824,627.9043 Q2400.7168,627.9043 2400.0762,628.2324 Q2399.4512,628.5605 2398.9512,629.3105 Q2398.4668,630.0605 2398.4668,631.0918 L2398.4668,632.1855 Q2398.4668,633.4199 2399.3574,634.248 Q2400.248,635.0605 2401.8418,635.0605 Q2402.7793,635.0605 2403.4355,634.8105 Q2403.8262,634.6543 2404.248,634.2168 Q2404.5137,633.9512 2404.6543,633.873 Q2404.8105,633.7949 2405.0137,633.7949 Q2405.3418,633.7949 2405.5918,634.0605 Q2405.8574,634.3105 2405.8574,634.6543 Q2405.8574,634.998 2405.5137,635.4043 Q2405.0137,635.9824 2404.2168,636.3105 Q2403.1387,636.7637 2401.8418,636.7637 Q2400.3262,636.7637 2399.123,636.1387 Q2398.1387,635.6387 2397.4512,634.5762 Q2396.7637,633.498 2396.7637,632.2168 L2396.7637,631.0605 Q2396.7637,629.7324 2397.373,628.5918 Q2397.998,627.4355 2399.0918,626.8262 Q2400.1855,626.2012 2401.4199,626.2012 Q2402.1543,626.2012 2402.7949,626.373 Q2403.4512,626.5293 2403.998,626.8887 Z " fill="#000000"/><text fill="#000000" font-family="sans-serif" font-size="14" lengthAdjust="spacing" textLength="93.3447" x="2421.7324" y="636.8105">MockOptimizer</text><line style="stroke:#181818;stroke-width:0.5;" x1="2255" x2="2649.3096" y1="647.0137" y2="647.0137"/><line style="stroke:#181818;stroke-width:0.5;" x1="2255" x2="2649.3096" y1="655.0137" y2="655.0137"/><ellipse cx="2265" cy="669.8242" fill="#84BE84" rx="3" ry="3" style="stroke:#038048;stroke-width:1;"/><text fill="#000000" font-family="sans-serif" font-size="14" lengthAdjust="spacing" textLength="360.2676" x="2274" y="674.1211">String optimize(SourceElementStore,TargetElementStore)</text><polygon fill="#FFFF44" points="2265,683.4453,2269,687.4453,2265,691.4453,2261,687.4453" style="stroke:#B38D22;stroke-width:1;"/><text fill="#000000" font-family="sans-serif" font-size="14" lengthAdjust="spacing" textLength="370.3096" x="2274" y="692.7422">AbstractPromptOptimizer copyOf(AbstractPromptOptimizer)</text></g><!--class AbstractScorer--><g class="entity" data-entity="AbstractScorer" data-source-line="80" data-uid="ent0015" id="entity_AbstractScorer"><rect fill="#F1F1F1" height="141.1055" rx="2.5" ry="2.5" style="stroke:#181818;stroke-width:0.5;" width="513.1016" x="594.5" y="1384.5137"/><ellipse cx="800.5078" cy="1400.5137" fill="#A9DCDF" rx="11" ry="11" style="stroke:#181818;stroke-width:1;"/><path d="M802.6953,1402.2793 L798.5547,1402.2793 L798.1328,1403.3105 L798.5547,1403.3105 Q799.1641,1403.3105 799.4297,1403.5449 Q799.6953,1403.7793 799.6953,1404.1699 Q799.6953,1404.5449 799.4297,1404.7793 Q799.1641,1405.0137 798.5547,1405.0137 L796.2578,1405.0137 Q795.6484,1405.0137 795.3984,1404.7793 Q795.1328,1404.5449 795.1328,1404.1543 Q795.1328,1403.7793 795.4141,1403.5449 Q795.6797,1403.2949 796.3047,1403.3105 L798.9766,1396.6543 L797.8672,1396.6543 Q797.2578,1396.6543 796.9922,1396.4199 Q796.7266,1396.1855 796.7266,1395.7949 Q796.7266,1395.4199 796.9922,1395.1855 Q797.2578,1394.9512 797.8672,1394.9512 L801.5391,1394.9512 L804.9297,1403.3105 Q805.5234,1403.3105 805.7109,1403.4512 Q806.1016,1403.7168 806.1016,1404.1699 Q806.1016,1404.5449 805.8359,1404.7793 Q805.5859,1405.0137 804.9766,1405.0137 L802.6797,1405.0137 Q802.0703,1405.0137 801.8047,1404.7793 Q801.5391,1404.5449 801.5391,1404.1543 Q801.5391,1403.7793 801.8047,1403.5449 Q802.0703,1403.3105 802.6797,1403.3105 L803.1016,1403.3105 L802.6953,1402.2793 Z M801.9766,1400.5762 L800.6172,1397.2012 L799.2422,1400.5762 L801.9766,1400.5762 Z " fill="#000000"/><text fill="#000000" font-family="sans-serif" font-size="14" font-style="italic" lengthAdjust="spacing" textLength="92.5859" x="821.0078" y="1406.3105">AbstractScorer</text><line style="stroke:#181818;stroke-width:0.5;" x1="595.5" x2="1106.6016" y1="1416.5137" y2="1416.5137"/><line style="stroke:#181818;stroke-width:0.5;" x1="595.5" x2="1106.6016" y1="1424.5137" y2="1424.5137"/><ellipse cx="605.5" cy="1439.3242" fill="#84BE84" rx="3" ry="3" style="stroke:#038048;stroke-width:1;"/><text fill="#000000" font-family="sans-serif" font-size="14" lengthAdjust="spacing" text-decoration="underline" textLength="315.1367" x="614.5" y="1443.6211">AbstractScorer createScorer(ModuleConfiguration)</text><ellipse cx="605.5" cy="1457.9453" fill="#84BE84" rx="3" ry="3" style="stroke:#038048;stroke-width:1;"/><text fill="#000000" font-family="sans-serif" font-size="14" lengthAdjust="spacing" textLength="474.667" x="614.5" y="1462.2422">List&lt;Double&gt; sequentialCall(Classifier,List&lt;String&gt;,List&lt;ClassificationTask&gt;)</text><ellipse cx="605.5" cy="1476.5664" fill="#84BE84" rx="3" ry="3" style="stroke:#038048;stroke-width:1;"/><text fill="#000000" font-family="sans-serif" font-size="14" lengthAdjust="spacing" textLength="474.6533" x="614.5" y="1480.8633">List&lt;Double&gt; parallelCall(Classifier,List&lt;String&gt;,List&lt;ClassificationTask&gt;,int)</text><polygon fill="#FFFF44" points="605.5,1490.1875,609.5,1494.1875,605.5,1498.1875,601.5,1494.1875" style="stroke:#B38D22;stroke-width:1;"/><text fill="#000000" font-family="sans-serif" font-size="14" font-style="italic" lengthAdjust="spacing" textLength="487.1016" x="614.5" y="1499.4844">List&lt;Double&gt; computeScores(Classifier,List&lt;Pair&lt;String,ClassificationTask&gt;&gt;)</text><polygon fill="#FFFF44" points="605.5,1508.8086,609.5,1512.8086,605.5,1516.8086,601.5,1512.8086" style="stroke:#B38D22;stroke-width:1;"/><text fill="#000000" font-family="sans-serif" font-size="14" lengthAdjust="spacing" textLength="283.2061" x="614.5" y="1518.1055">boolean classify(Classifier,ClassificationTask)</text></g><!--class BinaryScorer--><g class="entity" data-entity="BinaryScorer" data-source-line="88" data-uid="ent0017" id="entity_BinaryScorer"><rect fill="#F1F1F1" height="66.6211" rx="2.5" ry="2.5" style="stroke:#181818;stroke-width:0.5;" width="513.1016" x="46.5" y="1632.0137"/><ellipse cx="258.3423" cy="1648.0137" fill="#ADD1B2" rx="11" ry="11" style="stroke:#181818;stroke-width:1;"/><path d="M261.1079,1643.8887 Q261.2642,1643.6699 261.4517,1643.5605 Q261.6392,1643.4512 261.8579,1643.4512 Q262.2329,1643.4512 262.4673,1643.7168 Q262.7017,1643.9668 262.7017,1644.5762 L262.7017,1646.0293 Q262.7017,1646.6387 262.4673,1646.9043 Q262.2329,1647.1699 261.8579,1647.1699 Q261.5142,1647.1699 261.311,1646.9668 Q261.1079,1646.7793 260.9985,1646.2637 Q260.9517,1645.9043 260.7642,1645.7168 Q260.436,1645.3418 259.8267,1645.123 Q259.2173,1644.9043 258.5923,1644.9043 Q257.8267,1644.9043 257.186,1645.2324 Q256.561,1645.5605 256.061,1646.3105 Q255.5767,1647.0605 255.5767,1648.0918 L255.5767,1649.1855 Q255.5767,1650.4199 256.4673,1651.248 Q257.3579,1652.0605 258.9517,1652.0605 Q259.8892,1652.0605 260.5454,1651.8105 Q260.936,1651.6543 261.3579,1651.2168 Q261.6235,1650.9512 261.7642,1650.873 Q261.9204,1650.7949 262.1235,1650.7949 Q262.4517,1650.7949 262.7017,1651.0605 Q262.9673,1651.3105 262.9673,1651.6543 Q262.9673,1651.998 262.6235,1652.4043 Q262.1235,1652.9824 261.3267,1653.3105 Q260.2485,1653.7637 258.9517,1653.7637 Q257.436,1653.7637 256.2329,1653.1387 Q255.2485,1652.6387 254.561,1651.5762 Q253.8735,1650.498 253.8735,1649.2168 L253.8735,1648.0605 Q253.8735,1646.7324 254.4829,1645.5918 Q255.1079,1644.4355 256.2017,1643.8262 Q257.2954,1643.2012 258.5298,1643.2012 Q259.2642,1643.2012 259.9048,1643.373 Q260.561,1643.5293 261.1079,1643.8887 Z " fill="#000000"/><text fill="#000000" font-family="sans-serif" font-size="14" lengthAdjust="spacing" textLength="80.917" x="278.8423" y="1653.8105">BinaryScorer</text><line style="stroke:#181818;stroke-width:0.5;" x1="47.5" x2="558.6016" y1="1664.0137" y2="1664.0137"/><line style="stroke:#181818;stroke-width:0.5;" x1="47.5" x2="558.6016" y1="1672.0137" y2="1672.0137"/><polygon fill="#FFFF44" points="57.5,1681.8242,61.5,1685.8242,57.5,1689.8242,53.5,1685.8242" style="stroke:#B38D22;stroke-width:1;"/><text fill="#000000" font-family="sans-serif" font-size="14" lengthAdjust="spacing" textLength="487.1016" x="66.5" y="1691.1211">List&lt;Double&gt; computeScores(Classifier,List&lt;Pair&lt;String,ClassificationTask&gt;&gt;)</text></g><!--class MockScorer--><g class="entity" data-entity="MockScorer" data-source-line="92" data-uid="ent0018" id="entity_MockScorer"><rect fill="#F1F1F1" height="66.6211" rx="2.5" ry="2.5" style="stroke:#181818;stroke-width:0.5;" width="513.1016" x="594.5" y="1632.0137"/><ellipse cx="809.4595" cy="1648.0137" fill="#ADD1B2" rx="11" ry="11" style="stroke:#181818;stroke-width:1;"/><path d="M812.2251,1643.8887 Q812.3813,1643.6699 812.5688,1643.5605 Q812.7563,1643.4512 812.9751,1643.4512 Q813.3501,1643.4512 813.5845,1643.7168 Q813.8188,1643.9668 813.8188,1644.5762 L813.8188,1646.0293 Q813.8188,1646.6387 813.5845,1646.9043 Q813.3501,1647.1699 812.9751,1647.1699 Q812.6313,1647.1699 812.4282,1646.9668 Q812.2251,1646.7793 812.1157,1646.2637 Q812.0688,1645.9043 811.8813,1645.7168 Q811.5532,1645.3418 810.9438,1645.123 Q810.3345,1644.9043 809.7095,1644.9043 Q808.9438,1644.9043 808.3032,1645.2324 Q807.6782,1645.5605 807.1782,1646.3105 Q806.6938,1647.0605 806.6938,1648.0918 L806.6938,1649.1855 Q806.6938,1650.4199 807.5845,1651.248 Q808.4751,1652.0605 810.0688,1652.0605 Q811.0063,1652.0605 811.6626,1651.8105 Q812.0532,1651.6543 812.4751,1651.2168 Q812.7407,1650.9512 812.8813,1650.873 Q813.0376,1650.7949 813.2407,1650.7949 Q813.5688,1650.7949 813.8188,1651.0605 Q814.0845,1651.3105 814.0845,1651.6543 Q814.0845,1651.998 813.7407,1652.4043 Q813.2407,1652.9824 812.4438,1653.3105 Q811.3657,1653.7637 810.0688,1653.7637 Q808.5532,1653.7637 807.3501,1653.1387 Q806.3657,1652.6387 805.6782,1651.5762 Q804.9907,1650.498 804.9907,1649.2168 L804.9907,1648.0605 Q804.9907,1646.7324 805.6001,1645.5918 Q806.2251,1644.4355 807.3188,1643.8262 Q808.4126,1643.2012 809.647,1643.2012 Q810.3813,1643.2012 811.022,1643.373 Q811.6782,1643.5293 812.2251,1643.8887 Z " fill="#000000"/><text fill="#000000" font-family="sans-serif" font-size="14" lengthAdjust="spacing" textLength="74.6826" x="829.9595" y="1653.8105">MockScorer</text><line style="stroke:#181818;stroke-width:0.5;" x1="595.5" x2="1106.6016" y1="1664.0137" y2="1664.0137"/><line style="stroke:#181818;stroke-width:0.5;" x1="595.5" x2="1106.6016" y1="1672.0137" y2="1672.0137"/><polygon fill="#FFFF44" points="605.5,1681.8242,609.5,1685.8242,605.5,1689.8242,601.5,1685.8242" style="stroke:#B38D22;stroke-width:1;"/><text fill="#000000" font-family="sans-serif" font-size="14" lengthAdjust="spacing" textLength="487.1016" x="614.5" y="1691.1211">List&lt;Double&gt; computeScores(Classifier,List&lt;Pair&lt;String,ClassificationTask&gt;&gt;)</text></g><!--class UpperConfidenceBoundBanditEvaluator--><g class="entity" data-entity="UCBanditEvaluator" data-source-line="101" data-uid="ent0021" id="entity_UCBanditEvaluator"><rect fill="#F1F1F1" height="66.6211" rx="2.5" ry="2.5" style="stroke:#181818;stroke-width:0.5;" width="530.2051" x="1164" y="1632.0137"/><ellipse cx="1365.3218" cy="1648.0137" fill="#ADD1B2" rx="11" ry="11" style="stroke:#181818;stroke-width:1;"/><path d="M1368.0874,1643.8887 Q1368.2437,1643.6699 1368.4312,1643.5605 Q1368.6187,1643.4512 1368.8374,1643.4512 Q1369.2124,1643.4512 1369.4468,1643.7168 Q1369.6812,1643.9668 1369.6812,1644.5762 L1369.6812,1646.0293 Q1369.6812,1646.6387 1369.4468,1646.9043 Q1369.2124,1647.1699 1368.8374,1647.1699 Q1368.4937,1647.1699 1368.2905,1646.9668 Q1368.0874,1646.7793 1367.978,1646.2637 Q1367.9312,1645.9043 1367.7437,1645.7168 Q1367.4155,1645.3418 1366.8062,1645.123 Q1366.1968,1644.9043 1365.5718,1644.9043 Q1364.8062,1644.9043 1364.1655,1645.2324 Q1363.5405,1645.5605 1363.0405,1646.3105 Q1362.5562,1647.0605 1362.5562,1648.0918 L1362.5562,1649.1855 Q1362.5562,1650.4199 1363.4468,1651.248 Q1364.3374,1652.0605 1365.9312,1652.0605 Q1366.8687,1652.0605 1367.5249,1651.8105 Q1367.9155,1651.6543 1368.3374,1651.2168 Q1368.603,1650.9512 1368.7437,1650.873 Q1368.8999,1650.7949 1369.103,1650.7949 Q1369.4312,1650.7949 1369.6812,1651.0605 Q1369.9468,1651.3105 1369.9468,1651.6543 Q1369.9468,1651.998 1369.603,1652.4043 Q1369.103,1652.9824 1368.3062,1653.3105 Q1367.228,1653.7637 1365.9312,1653.7637 Q1364.4155,1653.7637 1363.2124,1653.1387 Q1362.228,1652.6387 1361.5405,1651.5762 Q1360.853,1650.498 1360.853,1649.2168 L1360.853,1648.0605 Q1360.853,1646.7324 1361.4624,1645.5918 Q1362.0874,1644.4355 1363.1812,1643.8262 Q1364.2749,1643.2012 1365.5093,1643.2012 Q1366.2437,1643.2012 1366.8843,1643.373 Q1367.5405,1643.5293 1368.0874,1643.8887 Z " fill="#000000"/><text fill="#000000" font-family="sans-serif" font-size="14" lengthAdjust="spacing" textLength="119.0615" x="1385.8218" y="1653.8105">UCBanditEvaluator</text><line style="stroke:#181818;stroke-width:0.5;" x1="1165" x2="1693.2051" y1="1664.0137" y2="1664.0137"/><line style="stroke:#181818;stroke-width:0.5;" x1="1165" x2="1693.2051" y1="1672.0137" y2="1672.0137"/><ellipse cx="1175" cy="1686.8242" fill="#84BE84" rx="3" ry="3" style="stroke:#038048;stroke-width:1;"/><text fill="#000000" font-family="sans-serif" font-size="14" lengthAdjust="spacing" textLength="504.2051" x="1184" y="1691.1211">List&lt;Double&gt; call(List&lt;String&gt;,List&lt;ClassificationTask&gt;,Classifier,AbstractScorer)</text></g><!--class UpperConfidenceBoundBanditEvaluator$UCBBandits--><g class="entity" data-entity="UCBanditEvaluator.UCBBandits" data-source-line="105" data-uid="ent0023" id="entity_UCBanditEvaluator.UCBBandits"><rect fill="#F1F1F1" height="103.8633" rx="2.5" ry="2.5" style="stroke:#181818;stroke-width:0.5;" width="235.1025" x="1311.5" y="1759.0137"/><ellipse cx="1326.5" cy="1775.0137" fill="#ADD1B2" rx="11" ry="11" style="stroke:#181818;stroke-width:1;"/><path d="M1329.2656,1770.8887 Q1329.4219,1770.6699 1329.6094,1770.5605 Q1329.7969,1770.4512 1330.0156,1770.4512 Q1330.3906,1770.4512 1330.625,1770.7168 Q1330.8594,1770.9668 1330.8594,1771.5762 L1330.8594,1773.0293 Q1330.8594,1773.6387 1330.625,1773.9043 Q1330.3906,1774.1699 1330.0156,1774.1699 Q1329.6719,1774.1699 1329.4688,1773.9668 Q1329.2656,1773.7793 1329.1563,1773.2637 Q1329.1094,1772.9043 1328.9219,1772.7168 Q1328.5938,1772.3418 1327.9844,1772.123 Q1327.375,1771.9043 1326.75,1771.9043 Q1325.9844,1771.9043 1325.3438,1772.2324 Q1324.7188,1772.5605 1324.2188,1773.3105 Q1323.7344,1774.0605 1323.7344,1775.0918 L1323.7344,1776.1855 Q1323.7344,1777.4199 1324.625,1778.248 Q1325.5156,1779.0605 1327.1094,1779.0605 Q1328.0469,1779.0605 1328.7031,1778.8105 Q1329.0938,1778.6543 1329.5156,1778.2168 Q1329.7813,1777.9512 1329.9219,1777.873 Q1330.0781,1777.7949 1330.2813,1777.7949 Q1330.6094,1777.7949 1330.8594,1778.0605 Q1331.125,1778.3105 1331.125,1778.6543 Q1331.125,1778.998 1330.7813,1779.4043 Q1330.2813,1779.9824 1329.4844,1780.3105 Q1328.4063,1780.7637 1327.1094,1780.7637 Q1325.5938,1780.7637 1324.3906,1780.1387 Q1323.4063,1779.6387 1322.7188,1778.5762 Q1322.0313,1777.498 1322.0313,1776.2168 L1322.0313,1775.0605 Q1322.0313,1773.7324 1322.6406,1772.5918 Q1323.2656,1771.4355 1324.3594,1770.8262 Q1325.4531,1770.2012 1326.6875,1770.2012 Q1327.4219,1770.2012 1328.0625,1770.373 Q1328.7188,1770.5293 1329.2656,1770.8887 Z " fill="#000000"/><text fill="#000000" font-family="sans-serif" font-size="14" lengthAdjust="spacing" textLength="203.1025" x="1340.5" y="1780.8105">UCBanditEvaluator$UCBBandits</text><line style="stroke:#181818;stroke-width:0.5;" x1="1312.5" x2="1545.6025" y1="1791.0137" y2="1791.0137"/><line style="stroke:#181818;stroke-width:0.5;" x1="1312.5" x2="1545.6025" y1="1799.0137" y2="1799.0137"/><ellipse cx="1322.5" cy="1813.8242" fill="#84BE84" rx="3" ry="3" style="stroke:#038048;stroke-width:1;"/><text fill="#000000" font-family="sans-serif" font-size="14" lengthAdjust="spacing" textLength="157.9922" x="1331.5" y="1818.1211">void update(int[],double[])</text><ellipse cx="1322.5" cy="1832.4453" fill="#84BE84" rx="3" ry="3" style="stroke:#038048;stroke-width:1;"/><text fill="#000000" font-family="sans-serif" font-size="14" lengthAdjust="spacing" textLength="126.0684" x="1331.5" y="1836.7422">double[] getScores()</text><ellipse cx="1322.5" cy="1851.0664" fill="#84BE84" rx="3" ry="3" style="stroke:#038048;stroke-width:1;"/><text fill="#000000" font-family="sans-serif" font-size="14" lengthAdjust="spacing" textLength="173.5439" x="1331.5" y="1855.3633">List&lt;Integer&gt; choose(int,int)</text></g><!--class AbstractEvaluator--><g class="entity" data-entity="AbstractEvaluator" data-source-line="111" data-uid="ent0024" id="entity_AbstractEvaluator"><rect fill="#F1F1F1" height="234.2109" rx="2.5" ry="2.5" style="stroke:#181818;stroke-width:0.5;" width="530.2051" x="1693" y="1338.0137"/><ellipse cx="1898.6045" cy="1354.0137" fill="#A9DCDF" rx="11" ry="11" style="stroke:#181818;stroke-width:1;"/><path d="M1900.792,1355.7793 L1896.6514,1355.7793 L1896.2295,1356.8105 L1896.6514,1356.8105 Q1897.2607,1356.8105 1897.5264,1357.0449 Q1897.792,1357.2793 1897.792,1357.6699 Q1897.792,1358.0449 1897.5264,1358.2793 Q1897.2607,1358.5137 1896.6514,1358.5137 L1894.3545,1358.5137 Q1893.7451,1358.5137 1893.4951,1358.2793 Q1893.2295,1358.0449 1893.2295,1357.6543 Q1893.2295,1357.2793 1893.5107,1357.0449 Q1893.7764,1356.7949 1894.4014,1356.8105 L1897.0732,1350.1543 L1895.9639,1350.1543 Q1895.3545,1350.1543 1895.0889,1349.9199 Q1894.8232,1349.6855 1894.8232,1349.2949 Q1894.8232,1348.9199 1895.0889,1348.6855 Q1895.3545,1348.4512 1895.9639,1348.4512 L1899.6357,1348.4512 L1903.0264,1356.8105 Q1903.6201,1356.8105 1903.8076,1356.9512 Q1904.1982,1357.2168 1904.1982,1357.6699 Q1904.1982,1358.0449 1903.9326,1358.2793 Q1903.6826,1358.5137 1903.0732,1358.5137 L1900.7764,1358.5137 Q1900.167,1358.5137 1899.9014,1358.2793 Q1899.6357,1358.0449 1899.6357,1357.6543 Q1899.6357,1357.2793 1899.9014,1357.0449 Q1900.167,1356.8105 1900.7764,1356.8105 L1901.1982,1356.8105 L1900.792,1355.7793 Z M1900.0732,1354.0762 L1898.7139,1350.7012 L1897.3389,1354.0762 L1900.0732,1354.0762 Z " fill="#000000"/><text fill="#000000" font-family="sans-serif" font-size="14" font-style="italic" lengthAdjust="spacing" textLength="110.4961" x="1919.1045" y="1359.8105">AbstractEvaluator</text><line style="stroke:#181818;stroke-width:0.5;" x1="1694" x2="2222.2051" y1="1370.0137" y2="1370.0137"/><polygon fill="none" points="1704,1379.8242,1708,1383.8242,1704,1387.8242,1700,1383.8242" style="stroke:#B38D22;stroke-width:1;"/><text fill="#000000" font-family="sans-serif" font-size="14" lengthAdjust="spacing" text-decoration="underline" textLength="114.3857" x="1713" y="1389.1211">String SEED_KEY</text><polygon fill="none" points="1704,1398.4453,1708,1402.4453,1704,1406.4453,1700,1402.4453" style="stroke:#B38D22;stroke-width:1;"/><text fill="#000000" font-family="sans-serif" font-size="14" lengthAdjust="spacing" text-decoration="underline" textLength="128.3721" x="1713" y="1407.7422">int DEFAULT_SEED</text><polygon fill="none" points="1704,1417.0664,1708,1421.0664,1704,1425.0664,1700,1421.0664" style="stroke:#B38D22;stroke-width:1;"/><text fill="#000000" font-family="sans-serif" font-size="14" lengthAdjust="spacing" textLength="86.3994" x="1713" y="1426.3633">Logger logger</text><polygon fill="none" points="1704,1435.6875,1708,1439.6875,1704,1443.6875,1700,1439.6875" style="stroke:#B38D22;stroke-width:1;"/><text fill="#000000" font-family="sans-serif" font-size="14" lengthAdjust="spacing" textLength="119.8271" x="1713" y="1444.9844">int samplesPerEval</text><polygon fill="none" points="1704,1454.3086,1708,1458.3086,1704,1462.3086,1700,1458.3086" style="stroke:#B38D22;stroke-width:1;"/><text fill="#000000" font-family="sans-serif" font-size="14" lengthAdjust="spacing" textLength="92.6133" x="1713" y="1463.6055">int evalRounds</text><polygon fill="none" points="1704,1472.9297,1708,1476.9297,1704,1480.9297,1700,1476.9297" style="stroke:#B38D22;stroke-width:1;"/><text fill="#000000" font-family="sans-serif" font-size="14" lengthAdjust="spacing" textLength="159.5234" x="1713" y="1482.2266">int evalPromptsPerRound</text><polygon fill="none" points="1704,1491.5508,1708,1495.5508,1704,1499.5508,1700,1495.5508" style="stroke:#B38D22;stroke-width:1;"/><text fill="#000000" font-family="sans-serif" font-size="14" lengthAdjust="spacing" textLength="126.875" x="1713" y="1500.8477">int evaluationBudget</text><polygon fill="none" points="1704,1510.1719,1708,1514.1719,1704,1518.1719,1700,1514.1719" style="stroke:#B38D22;stroke-width:1;"/><text fill="#000000" font-family="sans-serif" font-size="14" lengthAdjust="spacing" textLength="104.2754" x="1713" y="1519.4688">Random random</text><line style="stroke:#181818;stroke-width:0.5;" x1="1694" x2="2222.2051" y1="1526.9824" y2="1526.9824"/><ellipse cx="1704" cy="1541.793" fill="#84BE84" rx="3" ry="3" style="stroke:#038048;stroke-width:1;"/><text fill="#000000" font-family="sans-serif" font-size="14" lengthAdjust="spacing" text-decoration="underline" textLength="350.957" x="1713" y="1546.0898">AbstractEvaluator createEvaluator(ModuleConfiguration)</text><ellipse cx="1704" cy="1560.4141" fill="#84BE84" rx="3" ry="3" style="stroke:#038048;stroke-width:1;"/><text fill="#000000" font-family="sans-serif" font-size="14" font-style="italic" lengthAdjust="spacing" textLength="504.2051" x="1713" y="1564.7109">List&lt;Double&gt; call(List&lt;String&gt;,List&lt;ClassificationTask&gt;,Classifier,AbstractScorer)</text></g><!--class MockEvaluator--><g class="entity" data-entity="MockEvaluator" data-source-line="125" data-uid="ent0025" id="entity_MockEvaluator"><rect fill="#F1F1F1" height="66.6211" rx="2.5" ry="2.5" style="stroke:#181818;stroke-width:0.5;" width="530.2051" x="1729" y="1632.0137"/><ellipse cx="1943.5562" cy="1648.0137" fill="#ADD1B2" rx="11" ry="11" style="stroke:#181818;stroke-width:1;"/><path d="M1946.3218,1643.8887 Q1946.478,1643.6699 1946.6655,1643.5605 Q1946.853,1643.4512 1947.0718,1643.4512 Q1947.4468,1643.4512 1947.6812,1643.7168 Q1947.9155,1643.9668 1947.9155,1644.5762 L1947.9155,1646.0293 Q1947.9155,1646.6387 1947.6812,1646.9043 Q1947.4468,1647.1699 1947.0718,1647.1699 Q1946.728,1647.1699 1946.5249,1646.9668 Q1946.3218,1646.7793 1946.2124,1646.2637 Q1946.1655,1645.9043 1945.978,1645.7168 Q1945.6499,1645.3418 1945.0405,1645.123 Q1944.4312,1644.9043 1943.8062,1644.9043 Q1943.0405,1644.9043 1942.3999,1645.2324 Q1941.7749,1645.5605 1941.2749,1646.3105 Q1940.7905,1647.0605 1940.7905,1648.0918 L1940.7905,1649.1855 Q1940.7905,1650.4199 1941.6812,1651.248 Q1942.5718,1652.0605 1944.1655,1652.0605 Q1945.103,1652.0605 1945.7593,1651.8105 Q1946.1499,1651.6543 1946.5718,1651.2168 Q1946.8374,1650.9512 1946.978,1650.873 Q1947.1343,1650.7949 1947.3374,1650.7949 Q1947.6655,1650.7949 1947.9155,1651.0605 Q1948.1812,1651.3105 1948.1812,1651.6543 Q1948.1812,1651.998 1947.8374,1652.4043 Q1947.3374,1652.9824 1946.5405,1653.3105 Q1945.4624,1653.7637 1944.1655,1653.7637 Q1942.6499,1653.7637 1941.4468,1653.1387 Q1940.4624,1652.6387 1939.7749,1651.5762 Q1939.0874,1650.498 1939.0874,1649.2168 L1939.0874,1648.0605 Q1939.0874,1646.7324 1939.6968,1645.5918 Q1940.3218,1644.4355 1941.4155,1643.8262 Q1942.5093,1643.2012 1943.7437,1643.2012 Q1944.478,1643.2012 1945.1187,1643.373 Q1945.7749,1643.5293 1946.3218,1643.8887 Z " fill="#000000"/><text fill="#000000" font-family="sans-serif" font-size="14" lengthAdjust="spacing" textLength="92.5928" x="1964.0562" y="1653.8105">MockEvaluator</text><line style="stroke:#181818;stroke-width:0.5;" x1="1730" x2="2258.2051" y1="1664.0137" y2="1664.0137"/><line style="stroke:#181818;stroke-width:0.5;" x1="1730" x2="2258.2051" y1="1672.0137" y2="1672.0137"/><ellipse cx="1740" cy="1686.8242" fill="#84BE84" rx="3" ry="3" style="stroke:#038048;stroke-width:1;"/><text fill="#000000" font-family="sans-serif" font-size="14" lengthAdjust="spacing" textLength="504.2051" x="1749" y="1691.1211">List&lt;Double&gt; call(List&lt;String&gt;,List&lt;ClassificationTask&gt;,Classifier,AbstractScorer)</text></g><!--class BruteForceEvaluator--><g class="entity" data-entity="BruteForceEvaluator" data-source-line="129" data-uid="ent0026" id="entity_BruteForceEvaluator"><rect fill="#F1F1F1" height="66.6211" rx="2.5" ry="2.5" style="stroke:#181818;stroke-width:0.5;" width="530.2051" x="2294" y="1632.0137"/><ellipse cx="2490.6563" cy="1648.0137" fill="#ADD1B2" rx="11" ry="11" style="stroke:#181818;stroke-width:1;"/><path d="M2493.4219,1643.8887 Q2493.5781,1643.6699 2493.7656,1643.5605 Q2493.9531,1643.4512 2494.1719,1643.4512 Q2494.5469,1643.4512 2494.7813,1643.7168 Q2495.0156,1643.9668 2495.0156,1644.5762 L2495.0156,1646.0293 Q2495.0156,1646.6387 2494.7813,1646.9043 Q2494.5469,1647.1699 2494.1719,1647.1699 Q2493.8281,1647.1699 2493.625,1646.9668 Q2493.4219,1646.7793 2493.3125,1646.2637 Q2493.2656,1645.9043 2493.0781,1645.7168 Q2492.75,1645.3418 2492.1406,1645.123 Q2491.5313,1644.9043 2490.9063,1644.9043 Q2490.1406,1644.9043 2489.5,1645.2324 Q2488.875,1645.5605 2488.375,1646.3105 Q2487.8906,1647.0605 2487.8906,1648.0918 L2487.8906,1649.1855 Q2487.8906,1650.4199 2488.7813,1651.248 Q2489.6719,1652.0605 2491.2656,1652.0605 Q2492.2031,1652.0605 2492.8594,1651.8105 Q2493.25,1651.6543 2493.6719,1651.2168 Q2493.9375,1650.9512 2494.0781,1650.873 Q2494.2344,1650.7949 2494.4375,1650.7949 Q2494.7656,1650.7949 2495.0156,1651.0605 Q2495.2813,1651.3105 2495.2813,1651.6543 Q2495.2813,1651.998 2494.9375,1652.4043 Q2494.4375,1652.9824 2493.6406,1653.3105 Q2492.5625,1653.7637 2491.2656,1653.7637 Q2489.75,1653.7637 2488.5469,1653.1387 Q2487.5625,1652.6387 2486.875,1651.5762 Q2486.1875,1650.498 2486.1875,1649.2168 L2486.1875,1648.0605 Q2486.1875,1646.7324 2486.7969,1645.5918 Q2487.4219,1644.4355 2488.5156,1643.8262 Q2489.6094,1643.2012 2490.8438,1643.2012 Q2491.5781,1643.2012 2492.2188,1643.373 Q2492.875,1643.5293 2493.4219,1643.8887 Z " fill="#000000"/><text fill="#000000" font-family="sans-serif" font-size="14" lengthAdjust="spacing" textLength="128.3926" x="2511.1563" y="1653.8105">BruteForceEvaluator</text><line style="stroke:#181818;stroke-width:0.5;" x1="2295" x2="2823.2051" y1="1664.0137" y2="1664.0137"/><line style="stroke:#181818;stroke-width:0.5;" x1="2295" x2="2823.2051" y1="1672.0137" y2="1672.0137"/><ellipse cx="2305" cy="1686.8242" fill="#84BE84" rx="3" ry="3" style="stroke:#038048;stroke-width:1;"/><text fill="#000000" font-family="sans-serif" font-size="14" lengthAdjust="spacing" textLength="504.2051" x="2314" y="1691.1211">List&lt;Double&gt; call(List&lt;String&gt;,List&lt;ClassificationTask&gt;,Classifier,AbstractScorer)</text></g><!--class TargetElementStore--><g class="entity" data-entity="TargetElementStore" data-source-line="141" data-uid="ent0031" id="entity_TargetElementStore"><rect fill="#F1F1F1" height="141.1055" rx="2.5" ry="2.5" style="stroke:#181818;stroke-width:0.5;" width="490.5293" x="187.5" y="587.0137"/><ellipse cx="365.8735" cy="603.0137" fill="#ADD1B2" rx="11" ry="11" style="stroke:#181818;stroke-width:1;"/><path d="M368.6392,598.8887 Q368.7954,598.6699 368.9829,598.5605 Q369.1704,598.4512 369.3892,598.4512 Q369.7642,598.4512 369.9985,598.7168 Q370.2329,598.9668 370.2329,599.5762 L370.2329,601.0293 Q370.2329,601.6387 369.9985,601.9043 Q369.7642,602.1699 369.3892,602.1699 Q369.0454,602.1699 368.8423,601.9668 Q368.6392,601.7793 368.5298,601.2637 Q368.4829,600.9043 368.2954,600.7168 Q367.9673,600.3418 367.3579,600.123 Q366.7485,599.9043 366.1235,599.9043 Q365.3579,599.9043 364.7173,600.2324 Q364.0923,600.5605 363.5923,601.3105 Q363.1079,602.0605 363.1079,603.0918 L363.1079,604.1855 Q363.1079,605.4199 363.9985,606.248 Q364.8892,607.0605 366.4829,607.0605 Q367.4204,607.0605 368.0767,606.8105 Q368.4673,606.6543 368.8892,606.2168 Q369.1548,605.9512 369.2954,605.873 Q369.4517,605.7949 369.6548,605.7949 Q369.9829,605.7949 370.2329,606.0605 Q370.4985,606.3105 370.4985,606.6543 Q370.4985,606.998 370.1548,607.4043 Q369.6548,607.9824 368.8579,608.3105 Q367.7798,608.7637 366.4829,608.7637 Q364.9673,608.7637 363.7642,608.1387 Q362.7798,607.6387 362.0923,606.5762 Q361.4048,605.498 361.4048,604.2168 L361.4048,603.0605 Q361.4048,601.7324 362.0142,600.5918 Q362.6392,599.4355 363.7329,598.8262 Q364.8267,598.2012 366.061,598.2012 Q366.7954,598.2012 367.436,598.373 Q368.0923,598.5293 368.6392,598.8887 Z " fill="#000000"/><text fill="#000000" font-family="sans-serif" font-size="14" lengthAdjust="spacing" textLength="125.2822" x="386.3735" y="608.8105">TargetElementStore</text><line style="stroke:#181818;stroke-width:0.5;" x1="188.5" x2="677.0293" y1="619.0137" y2="619.0137"/><line style="stroke:#181818;stroke-width:0.5;" x1="188.5" x2="677.0293" y1="627.0137" y2="627.0137"/><ellipse cx="198.5" cy="641.8242" fill="#84BE84" rx="3" ry="3" style="stroke:#038048;stroke-width:1;"/><text fill="#000000" font-family="sans-serif" font-size="14" lengthAdjust="spacing" textLength="247.4336" x="207.5" y="646.1211">RetrievalStrategy getRetrievalStrategy()</text><ellipse cx="198.5" cy="660.4453" fill="#84BE84" rx="3" ry="3" style="stroke:#038048;stroke-width:1;"/><text fill="#000000" font-family="sans-serif" font-size="14" lengthAdjust="spacing" textLength="196.0889" x="207.5" y="664.7422">List&lt;Element&gt; getAllElements()</text><ellipse cx="198.5" cy="679.0664" fill="#84BE84" rx="3" ry="3" style="stroke:#038048;stroke-width:1;"/><text fill="#000000" font-family="sans-serif" font-size="14" lengthAdjust="spacing" textLength="435.7637" x="207.5" y="683.3633">TargetElementStore reduceTargetElementStore(SourceElementStore)</text><ellipse cx="198.5" cy="697.6875" fill="#84BE84" rx="3" ry="3" style="stroke:#038048;stroke-width:1;"/><text fill="#000000" font-family="sans-serif" font-size="14" lengthAdjust="spacing" textLength="298.7988" x="207.5" y="701.9844">List&lt;Element&gt; findSimilar(Pair&lt;Element,float[]&gt;)</text><ellipse cx="198.5" cy="716.3086" fill="#84BE84" rx="3" ry="3" style="stroke:#038048;stroke-width:1;"/><text fill="#000000" font-family="sans-serif" font-size="14" lengthAdjust="spacing" textLength="464.5293" x="207.5" y="720.6055">List&lt;Pair&lt;Element,Float&gt;&gt; findSimilarWithDistances(Pair&lt;Element,float[]&gt;)</text></g><!--class ElementStore--><g class="entity" data-entity="ElementStore" data-source-line="150" data-uid="ent0033" id="entity_ElementStore"><rect fill="#F1F1F1" height="141.1055" rx="2.5" ry="2.5" style="stroke:#181818;stroke-width:0.5;" width="391.7432" x="457" y="181.0137"/><ellipse cx="606.2114" cy="197.0137" fill="#ADD1B2" rx="11" ry="11" style="stroke:#181818;stroke-width:1;"/><path d="M608.9771,192.8887 Q609.1333,192.6699 609.3208,192.5605 Q609.5083,192.4512 609.7271,192.4512 Q610.1021,192.4512 610.3364,192.7168 Q610.5708,192.9668 610.5708,193.5762 L610.5708,195.0293 Q610.5708,195.6387 610.3364,195.9043 Q610.1021,196.1699 609.7271,196.1699 Q609.3833,196.1699 609.1802,195.9668 Q608.9771,195.7793 608.8677,195.2637 Q608.8208,194.9043 608.6333,194.7168 Q608.3052,194.3418 607.6958,194.123 Q607.0864,193.9043 606.4614,193.9043 Q605.6958,193.9043 605.0552,194.2324 Q604.4302,194.5605 603.9302,195.3105 Q603.4458,196.0605 603.4458,197.0918 L603.4458,198.1855 Q603.4458,199.4199 604.3364,200.248 Q605.2271,201.0605 606.8208,201.0605 Q607.7583,201.0605 608.4146,200.8105 Q608.8052,200.6543 609.2271,200.2168 Q609.4927,199.9512 609.6333,199.873 Q609.7896,199.7949 609.9927,199.7949 Q610.3208,199.7949 610.5708,200.0605 Q610.8364,200.3105 610.8364,200.6543 Q610.8364,200.998 610.4927,201.4043 Q609.9927,201.9824 609.1958,202.3105 Q608.1177,202.7637 606.8208,202.7637 Q605.3052,202.7637 604.1021,202.1387 Q603.1177,201.6387 602.4302,200.5762 Q601.7427,199.498 601.7427,198.2168 L601.7427,197.0605 Q601.7427,195.7324 602.3521,194.5918 Q602.9771,193.4355 604.0708,192.8262 Q605.1646,192.2012 606.3989,192.2012 Q607.1333,192.2012 607.7739,192.373 Q608.4302,192.5293 608.9771,192.8887 Z " fill="#000000"/><text fill="#000000" font-family="sans-serif" font-size="14" lengthAdjust="spacing" textLength="84.8203" x="626.7114" y="202.8105">ElementStore</text><line style="stroke:#181818;stroke-width:0.5;" x1="458" x2="847.7432" y1="213.0137" y2="213.0137"/><line style="stroke:#181818;stroke-width:0.5;" x1="458" x2="847.7432" y1="221.0137" y2="221.0137"/><ellipse cx="468" cy="235.8242" fill="#84BE84" rx="3" ry="3" style="stroke:#038048;stroke-width:1;"/><text fill="#000000" font-family="sans-serif" font-size="14" lengthAdjust="spacing" textLength="238.9092" x="477" y="240.1211">void setup(List&lt;Element&gt;,List&lt;float[]&gt;)</text><ellipse cx="468" cy="254.4453" fill="#84BE84" rx="3" ry="3" style="stroke:#038048;stroke-width:1;"/><text fill="#000000" font-family="sans-serif" font-size="14" lengthAdjust="spacing" textLength="227.999" x="477" y="258.7422">Pair&lt;Element,float[]&gt; getById(String)</text><ellipse cx="468" cy="273.0664" fill="#84BE84" rx="3" ry="3" style="stroke:#038048;stroke-width:1;"/><text fill="#000000" font-family="sans-serif" font-size="14" lengthAdjust="spacing" textLength="365.7432" x="477" y="277.3633">List&lt;Pair&lt;Element,float[]&gt;&gt; getElementsByParentId(String)</text><polygon fill="#FFFF44" points="468,286.6875,472,290.6875,468,294.6875,464,290.6875" style="stroke:#B38D22;stroke-width:1;"/><text fill="#000000" font-family="sans-serif" font-size="14" lengthAdjust="spacing" textLength="361.0947" x="477" y="295.9844">List&lt;Pair&lt;Element,float[]&gt;&gt; getAllElementsIntern(boolean)</text><polygon fill="#FFFF44" points="468,305.3086,472,309.3086,468,313.3086,464,309.3086" style="stroke:#B38D22;stroke-width:1;"/><text fill="#000000" font-family="sans-serif" font-size="14" lengthAdjust="spacing" textLength="52.8965" x="477" y="314.6055">int size()</text></g><!--class SourceElementStore--><g class="entity" data-entity="SourceElementStore" data-source-line="158" data-uid="ent0034" id="entity_SourceElementStore"><rect fill="#F1F1F1" height="103.8633" rx="2.5" ry="2.5" style="stroke:#181818;stroke-width:0.5;" width="355.1641" x="713.5" y="605.5137"/><ellipse cx="822.2427" cy="621.5137" fill="#ADD1B2" rx="11" ry="11" style="stroke:#181818;stroke-width:1;"/><path d="M825.0083,617.3887 Q825.1646,617.1699 825.3521,617.0605 Q825.5396,616.9512 825.7583,616.9512 Q826.1333,616.9512 826.3677,617.2168 Q826.6021,617.4668 826.6021,618.0762 L826.6021,619.5293 Q826.6021,620.1387 826.3677,620.4043 Q826.1333,620.6699 825.7583,620.6699 Q825.4146,620.6699 825.2114,620.4668 Q825.0083,620.2793 824.8989,619.7637 Q824.8521,619.4043 824.6646,619.2168 Q824.3364,618.8418 823.7271,618.623 Q823.1177,618.4043 822.4927,618.4043 Q821.7271,618.4043 821.0864,618.7324 Q820.4614,619.0605 819.9614,619.8105 Q819.4771,620.5605 819.4771,621.5918 L819.4771,622.6855 Q819.4771,623.9199 820.3677,624.748 Q821.2583,625.5605 822.8521,625.5605 Q823.7896,625.5605 824.4458,625.3105 Q824.8364,625.1543 825.2583,624.7168 Q825.5239,624.4512 825.6646,624.373 Q825.8208,624.2949 826.0239,624.2949 Q826.3521,624.2949 826.6021,624.5605 Q826.8677,624.8105 826.8677,625.1543 Q826.8677,625.498 826.5239,625.9043 Q826.0239,626.4824 825.2271,626.8105 Q824.1489,627.2637 822.8521,627.2637 Q821.3364,627.2637 820.1333,626.6387 Q819.1489,626.1387 818.4614,625.0762 Q817.7739,623.998 817.7739,622.7168 L817.7739,621.5605 Q817.7739,620.2324 818.3833,619.0918 Q819.0083,617.9355 820.1021,617.3262 Q821.1958,616.7012 822.4302,616.7012 Q823.1646,616.7012 823.8052,616.873 Q824.4614,617.0293 825.0083,617.3887 Z " fill="#000000"/><text fill="#000000" font-family="sans-serif" font-size="14" lengthAdjust="spacing" textLength="129.1787" x="842.7427" y="627.3105">SourceElementStore</text><line style="stroke:#181818;stroke-width:0.5;" x1="714.5" x2="1067.6641" y1="637.5137" y2="637.5137"/><line style="stroke:#181818;stroke-width:0.5;" x1="714.5" x2="1067.6641" y1="645.5137" y2="645.5137"/><ellipse cx="724.5" cy="660.3242" fill="#84BE84" rx="3" ry="3" style="stroke:#038048;stroke-width:1;"/><text fill="#000000" font-family="sans-serif" font-size="14" lengthAdjust="spacing" textLength="196.0889" x="733.5" y="664.6211">List&lt;Element&gt; getAllElements()</text><ellipse cx="724.5" cy="678.9453" fill="#84BE84" rx="3" ry="3" style="stroke:#038048;stroke-width:1;"/><text fill="#000000" font-family="sans-serif" font-size="14" lengthAdjust="spacing" textLength="325.2949" x="733.5" y="683.2422">List&lt;Pair&lt;Element,float[]&gt;&gt; getAllElements(boolean)</text><ellipse cx="724.5" cy="697.5664" fill="#84BE84" rx="3" ry="3" style="stroke:#038048;stroke-width:1;"/><text fill="#000000" font-family="sans-serif" font-size="14" lengthAdjust="spacing" textLength="329.1641" x="733.5" y="701.8633">SourceElementStore reduceSourceElementStore(int)</text></g><!--reverse link PromptOptimizer to SimpleOptimizer--><g class="link" data-entity-1="AbstractPromptOptimizer" data-entity-2="SimpleOptimizer" data-source-line="74" data-uid="lnk10" id="link_AbstractPromptOptimizer_SimpleOptimizer"><path codeLine="74" d="M1675.3326,425.7117 C1648.1726,445.5817 1635.58,455.2337 1610,475.0137 C1559.63,513.9737 1504.72,560.1737 1462.87,596.2037" fill="none" id="AbstractPromptOptimizer-backto-SimpleOptimizer" style="stroke:#181818;stroke-width:1;"/><polygon fill="none" points="1689.86,415.0837,1671.79,420.8693,1678.8753,430.5542,1689.86,415.0837" style="stroke:#181818;stroke-width:1;"/></g><!--reverse link IterativeFeedbackOptimizer to AutomaticPromptOptimizer--><g class="link" data-entity-1="IterativeFeedbackOptimizer" data-entity-2="AutomaticPromptOptimizer" data-source-line="75" data-uid="lnk11" id="link_IterativeFeedbackOptimizer_AutomaticPromptOptimizer"><path codeLine="75" d="M1923,1078.1337 C1923,1097.8337 1923,1100.8037 1923,1120.0037" fill="none" id="IterativeFeedbackOptimizer-backto-AutomaticPromptOptimizer" style="stroke:#181818;stroke-width:1;"/><polygon fill="none" points="1923,1060.1337,1917,1078.1337,1929,1078.1337,1923,1060.1337" style="stroke:#181818;stroke-width:1;"/></g><!--reverse link PromptOptimizer to IterativeOptimizer--><g class="link" data-entity-1="AbstractPromptOptimizer" data-entity-2="IterativeOptimizer" data-source-line="76" data-uid="lnk12" id="link_AbstractPromptOptimizer_IterativeOptimizer"><path codeLine="76" d="M1923,433.0937 C1923,452.7137 1923,454.8537 1923,474.7337" fill="none" id="AbstractPromptOptimizer-backto-IterativeOptimizer" style="stroke:#181818;stroke-width:1;"/><polygon fill="none" points="1923,415.0937,1917,433.0937,1929,433.0937,1923,415.0937" style="stroke:#181818;stroke-width:1;"/></g><!--reverse link IterativeOptimizer to IterativeFeedbackOptimizer--><g class="link" data-entity-1="IterativeOptimizer" data-entity-2="IterativeFeedbackOptimizer" data-source-line="77" data-uid="lnk13" id="link_IterativeOptimizer_IterativeFeedbackOptimizer"><path codeLine="77" d="M1923,858.3037 C1923,879.0737 1923,881.3437 1923,899.7037" fill="none" id="IterativeOptimizer-backto-IterativeFeedbackOptimizer" style="stroke:#181818;stroke-width:1;"/><polygon fill="none" points="1923,840.3037,1917,858.3037,1929,858.3037,1923,840.3037" style="stroke:#181818;stroke-width:1;"/></g><!--reverse link PromptOptimizer to MockOptimizer--><g class="link" data-entity-1="AbstractPromptOptimizer" data-entity-2="MockOptimizer" data-source-line="78" data-uid="lnk14" id="link_AbstractPromptOptimizer_MockOptimizer"><path codeLine="78" d="M2170.6674,425.7117 C2197.8274,445.5817 2210.42,455.2337 2236,475.0137 C2295.47,521.0137 2361.28,577.1037 2404.45,614.6437" fill="none" id="AbstractPromptOptimizer-backto-MockOptimizer" style="stroke:#181818;stroke-width:1;"/><polygon fill="none" points="2156.14,415.0837,2167.1247,430.5542,2174.21,420.8693,2156.14,415.0837" style="stroke:#181818;stroke-width:1;"/></g><!--reverse link AbstractScorer to BinaryScorer--><g class="link" data-entity-1="AbstractScorer" data-entity-2="BinaryScorer" data-source-line="98" data-uid="lnk19" id="link_AbstractScorer_BinaryScorer"><path codeLine="98" d="M651.3164,1531.9842 C557.0064,1567.8642 463.27,1603.5337 388.71,1631.9037" fill="none" id="AbstractScorer-backto-BinaryScorer" style="stroke:#181818;stroke-width:1;"/><polygon fill="none" points="668.14,1525.5837,649.1829,1526.3763,653.4499,1537.592,668.14,1525.5837" style="stroke:#181818;stroke-width:1;"/></g><!--reverse link AbstractScorer to MockScorer--><g class="link" data-entity-1="AbstractScorer" data-entity-2="MockScorer" data-source-line="99" data-uid="lnk20" id="link_AbstractScorer_MockScorer"><path codeLine="99" d="M851,1543.7337 C851,1579.6037 851,1603.6237 851,1631.9437" fill="none" id="AbstractScorer-backto-MockScorer" style="stroke:#181818;stroke-width:1;"/><polygon fill="none" points="851,1525.7337,845,1543.7337,857,1543.7337,851,1525.7337" style="stroke:#181818;stroke-width:1;"/></g><!--reverse link AbstractEvaluator to UpperConfidenceBoundBanditEvaluator--><g class="link" data-entity-1="AbstractEvaluator" data-entity-2="UCBanditEvaluator" data-source-line="134" data-uid="lnk27" id="link_AbstractEvaluator_UCBanditEvaluator"><path codeLine="134" d="M1675.9836,1567.1736 C1610.1136,1593.1336 1561.06,1612.4637 1511.66,1631.9337" fill="none" id="AbstractEvaluator-backto-UCBanditEvaluator" style="stroke:#181818;stroke-width:1;"/><polygon fill="none" points="1692.73,1560.5737,1673.7837,1561.5915,1678.1836,1572.7557,1692.73,1560.5737" style="stroke:#181818;stroke-width:1;"/></g><!--reverse link UpperConfidenceBoundBanditEvaluator to UpperConfidenceBoundBanditEvaluator$UCBBandits--><g class="link" data-entity-1="UCBanditEvaluator" data-entity-2="UCBanditEvaluator.UCBBandits" data-source-line="135" data-uid="lnk28" id="link_UCBanditEvaluator_UCBanditEvaluator.UCBBandits"><path codeLine="135" d="M1429,1715.0737 C1429,1732.7737 1429,1739.0537 1429,1759.0037" fill="none" id="UCBanditEvaluator-backto-UCBanditEvaluator$UCBBandits" style="stroke:#181818;stroke-width:1;stroke-dasharray:7,7;"/><ellipse cx="1429" cy="1707.0737" fill="#FFFFFF" rx="8" ry="8" style="stroke:#181818;stroke-width:1;"/><line style="stroke:#181818;stroke-width:1;" x1="1429" x2="1429" y1="1715.0737" y2="1699.0737"/><line style="stroke:#181818;stroke-width:1;" x1="1421" x2="1437" y1="1707.0737" y2="1707.0737"/></g><!--reverse link AbstractEvaluator to MockEvaluator--><g class="link" data-entity-1="AbstractEvaluator" data-entity-2="MockEvaluator" data-source-line="136" data-uid="lnk29" id="link_AbstractEvaluator_MockEvaluator"><path codeLine="136" d="M1981.1143,1589.8909 C1984.8943,1611.7709 1985.49,1615.2037 1988.34,1631.7437" fill="none" id="AbstractEvaluator-backto-MockEvaluator" style="stroke:#181818;stroke-width:1;"/><polygon fill="none" points="1978.05,1572.1537,1975.2019,1590.9124,1987.0267,1588.8695,1978.05,1572.1537" style="stroke:#181818;stroke-width:1;"/></g><!--reverse link AbstractEvaluator to BruteForceEvaluator--><g class="link" data-entity-1="AbstractEvaluator" data-entity-2="BruteForceEvaluator" data-source-line="137" data-uid="lnk30" id="link_AbstractEvaluator_BruteForceEvaluator"><path codeLine="137" d="M2240.3659,1553.9728 C2326.6759,1583.9128 2399.91,1609.3237 2465.06,1631.9237" fill="none" id="AbstractEvaluator-backto-BruteForceEvaluator" style="stroke:#181818;stroke-width:1;"/><polygon fill="none" points="2223.36,1548.0737,2238.3995,1559.6415,2242.3323,1548.3042,2223.36,1548.0737" style="stroke:#181818;stroke-width:1;"/></g><!--reverse link ElementStore to TargetElementStore--><g class="link" data-entity-1="ElementStore" data-entity-2="TargetElementStore" data-source-line="166" data-uid="lnk35" id="link_ElementStore_TargetElementStore"><path codeLine="166" d="M606.3217,338.2318 C565.9817,412.3118 511.27,512.7737 470.97,586.7837" fill="none" id="ElementStore-backto-TargetElementStore" style="stroke:#181818;stroke-width:1;"/><polygon fill="none" points="614.93,322.4237,601.0523,335.3624,611.5911,341.1012,614.93,322.4237" style="stroke:#181818;stroke-width:1;"/></g><!--reverse link ElementStore to SourceElementStore--><g class="link" data-entity-1="ElementStore" data-entity-2="SourceElementStore" data-source-line="167" data-uid="lnk36" id="link_ElementStore_SourceElementStore"><path codeLine="167" d="M703.3164,337.9326 C750.8164,418.5626 818.63,533.6637 860.87,605.3637" fill="none" id="ElementStore-backto-SourceElementStore" style="stroke:#181818;stroke-width:1;"/><polygon fill="none" points="694.18,322.4237,698.1468,340.978,708.4861,334.8871,694.18,322.4237" style="stroke:#181818;stroke-width:1;"/></g><!--reverse link AutomaticPromptOptimizer to AbstractEvaluator--><g class="link" data-entity-1="AutomaticPromptOptimizer" data-entity-2="AbstractEvaluator" data-source-line="171" data-uid="lnk37" id="link_AutomaticPromptOptimizer_AbstractEvaluator"><path codeLine="171" d="M1933.0833,1267.121 C1936.2233,1290.661 1939.02,1311.6737 1942.51,1337.8237" fill="none" id="AutomaticPromptOptimizer-backto-AbstractEvaluator" style="stroke:#181818;stroke-width:1;"/><polygon fill="#181818" points="1932.29,1261.1737,1929.5151,1270.6235,1932.9511,1266.1298,1937.4449,1269.5658,1932.29,1261.1737" style="stroke:#181818;stroke-width:1;"/></g><!--reverse link AutomaticPromptOptimizer to AbstractScorer--><g class="link" data-entity-1="AutomaticPromptOptimizer" data-entity-2="AbstractScorer" data-source-line="172" data-uid="lnk38" id="link_AutomaticPromptOptimizer_AbstractScorer"><path codeLine="172" d="M1718.7608,1197.9232 C1559.5208,1207.4832 1337.92,1231.4437 1148,1293.0137 C1081.05,1314.7137 1011.61,1351.4537 956.72,1384.3537" fill="none" id="AutomaticPromptOptimizer-backto-AbstractScorer" style="stroke:#181818;stroke-width:1;"/><polygon fill="#181818" points="1724.75,1197.5637,1715.5265,1194.1102,1719.759,1197.8633,1716.0059,1202.0958,1724.75,1197.5637" style="stroke:#181818;stroke-width:1;"/></g><!--SRC=[nLXPRziu47xNhn2GFZYeQw3lWG7PbXEXlY2fs6sBmc0aHY4YYrwH2khjvh_laABkmqUocnVRv0pd_6Ouj1SYnlGOyJ0UxMEwstEwvsH7_iRno26xVOZNsLh_hNtKVpEEEF5UT8V790hqcJatlYxSxNhZMalhk-5QwzNMDPURXU6QBVnhsxgrLiPYkx7Nousx_M9-0ov5p5GF79h47ZP3lCCHTpYDyT15SO1vUUjQkzADUyPZvF6DDBqmrQFxm_fXq46-rbuqJVDwN3SIJdV2yBhWjXWuhc6xMzUuRQ6Pgra7nJ6dCbXtfZ4pROY7ERV-VAzO84NKUuFIeQ0j9jFrQcxTRbV6qjmwviQm3NTjj_0f6CWGTfCXYk1W1x4LUX9OdKTgn0KD0l0ZNQOB8AlTC5kJYElyCSR8PsLBEyCEdBoedi6I-ac8fpHw84420IOq6ZgOtxXm62z8z3GUsfWb8JU28CO1WhGESvhbRoZZa10FCmQ4gKWJUI0u7cRw7GzmK2pDPnGcGiYrC3RBxyl5w2f4N8gpPZRmhnBd73uX07iQCJ1BChITsQEOOHT1JdmNpiz9pBXY7rQ-AeSNXF6RT7zS5t7yj5BDK4Gu-9BQczjuh9TO78jqFrSwQKcwJvFx4ElkdMqwT-l5R3l_l7McQziiCmdmkRPXhQpLxNPckCRMiRuBZYdo7h7kYK-nUaHyWQ8WGG46mE4GR7qcFgZSgn-AIHBrCDp1Mhd7CRHxW6onetoGM4sTLcMmGx_8Bjafpo1ZGceEoRI9o9z2LWNZEi2I-FcQlQRXrGvQ4PWJdNrSXivtL6vz6_-LOCPB25JvmMb1uVddqrIKW5GB0J0M0NW3OJRs4m_xjpJq7OuY7yN-6Q9VUNMSXFmvnluzyfxwxuovQSucnlHBDXlqZ15rrdICg5HBpY8BfKU4eAiRuVBMzYei7kiWIreFtRiC2TfvOy7DFvy-dJPPQcV3fqTsr-ZsTjOt6xfsSkS_HMp3tRSplOAaZh6FoK5YL9qhgWLRewMZJhfectF4229lu9bifMETYIORSOB2AGh3GMcQAL_KwI8ZUbAKYzZJk24FRdIGWo-JDeHkKPrmAh8zY62Yl6CDuHj4OgLXs29xB0JVKnfY56NNug4if7ccqLLLFYOaGl4XpyQL_gPMjkiKSFaFDMOTfHrn9HYtXE3CeuKdLKTnDYQFlaudS7UIOd2MaA-wBE1r6gOw1_H6g7ii-00xwHQJnZnJukl9teTY6m1eV_mSfhF9Zv-Y8hBVOYHGMSaBHTn7y8e15nufPV9q2lkNZYPGMDLuK5Idr_mrQyxgpofn2sV_3mXwnvkA8N4Pi0sEXGgrAVJRD8byLjf86vtWbAGI9P6XdoG- -0xRDWIDxi0LyTNMk0fdqjwLhxlQLrTpU2j4T412mFRz03c9eS3dL4mM_uCDsd7abUgwfsoquwNzSJGwg_mkjQsIlqk5jAH1goCc7VEO6FD6pSbFPit6a1yX5V84a0yEwTkXjbdq32L0FZ6CC5JBjAcqg8ZbAwH9Q9bDcoeUIEJ3K4X250_arQ4emuUG8cXqnPLVeSu5TLmv_WVXZpDWH9473R13rajV-1g1assNOPxi1nMhKw2NBMnL9-8tELX-_gHiyoHZbjnPg2U73OhXH-dirR6pfKofHuWQFwwpTYlU2ysYBqUWcR6YxFjGSRffXL7mbcbgIx7K90ooEojl5fs9ArTIVt5SBAffNyyZgUiFvPkMWc_qXSk5jiv7shy0]--></g></svg>